<?xml version="1.0" encoding="utf-8"?>
<!-- Generator: Adobe Illustrator 19.1.0, SVG Export Plug-In . SVG Version: 6.00 Build 0)  -->
<!DOCTYPE svg PUBLIC "-//W3C//DTD SVG 1.1//EN" "http://www.w3.org/Graphics/SVG/1.1/DTD/svg11.dtd">
<svg version="1.1" id="Layer_1" xmlns="http://www.w3.org/2000/svg" xmlns:xlink="http://www.w3.org/1999/xlink" x="0px" y="0px"
	 viewBox="-58 -17.3 841.9 595.3" style="enable-background:new -58 -17.3 841.9 595.3;" xml:space="preserve">
<style type="text/css">
	.st0{fill:none;stroke:#000000;stroke-width:3;stroke-miterlimit:79.8403;}
	.st1{fill:none;stroke:#000000;stroke-width:1.126;stroke-miterlimit:79.8403;}
	.st2{fill:none;stroke:#000000;stroke-width:0.659;stroke-miterlimit:79.8403;}
	.st3{fill:none;stroke:#000000;stroke-width:1.402;stroke-miterlimit:79.8403;}
	.st4{fill:none;stroke:#000000;stroke-width:0.75;stroke-miterlimit:79.8403;}
</style>
<g id="Document" transform="scale(1 -1)">
	<g id="Spread" transform="translate(0 -595.277)">
		<g id="Frame">
			<path marker-start="none" marker-end="none" class="st0" d="M46,52.8h633.9c12.8,0,23.1,10.4,23.1,23.1v478
				c0,12.8-10.4,23.1-23.1,23.1H46c-12.8,0-23.1-10.4-23.1-23.1v-478C22.9,63.2,33.2,52.8,46,52.8z"/>
			<path marker-start="none" marker-end="none" class="st1" d="M83.5,105.8h558.7v418.9H83.5V105.8z"/>
			<path marker-start="none" marker-end="none" class="st2" d="M50.1,312.4c-1.6,1.2-2,3.4-0.8,5c1.2,1.6,3.4,2,5,0.8
				c1.6-1.2,2-3.4,0.8-5C54,311.6,51.7,311.2,50.1,312.4z"/>
			<path marker-start="none" marker-end="none" class="st3" d="M664.8,326.8c6.5,5.2,16,4,21.2-2.5c5.2-6.5,4-16.1-2.5-21.2
				c-6.5-5.2-16-4-21.2,2.5C657.1,312.1,658.3,321.6,664.8,326.8z"/>
			<path marker-start="none" marker-end="none" class="st4" d="M669.2,318.4v-6.9c0-0.8,0.6-1.4,1.4-1.4h7.2c0.8,0,1.4,0.6,1.4,1.4
				v6.9c0,0.8-0.6,1.4-1.4,1.4h-7.2C669.8,319.8,669.2,319.1,669.2,318.4z"/>
		</g>
	</g>
</g>
</svg>
