<?xml version="1.0" encoding="utf-8"?>
<!-- Generator: Adobe Illustrator 19.1.0, SVG Export Plug-In . SVG Version: 6.00 Build 0)  -->
<!DOCTYPE svg PUBLIC "-//W3C//DTD SVG 1.1//EN" "http://www.w3.org/Graphics/SVG/1.1/DTD/svg11.dtd">
<svg version="1.1" id="Layer_1" xmlns="http://www.w3.org/2000/svg" xmlns:xlink="http://www.w3.org/1999/xlink" x="0px" y="0px"
	 viewBox="-181 -140.9 595.3 841.9" style="enable-background:new -181 -140.9 595.3 841.9;" xml:space="preserve">
<style type="text/css">
	.st0{fill:none;stroke:#000000;stroke-width:0.75;stroke-miterlimit:79.8403;}
	.st1{fill:#FFFFFF;stroke:#000000;stroke-width:1.989;stroke-linecap:round;stroke-miterlimit:79.8403;}
	.st2{fill:none;stroke:#000000;stroke-width:0.75;stroke-linecap:round;stroke-miterlimit:79.8403;}
	.st3{fill:none;stroke:#000000;stroke-width:0.687;stroke-miterlimit:79.8403;}
	.st4{fill:none;stroke:#000000;stroke-width:0.501;}
</style>
<g id="Document" transform="scale(1 -1)">
	<g id="Spread" transform="translate(0 -841.891)">
		<g id="Layer_1_1_">
			<path marker-start="none" marker-end="none" class="st0" d="M210.2,745.6v-27.4c0-0.3,0.3-0.6,0.6-0.6h1.5c0.3,0,0.6,0.3,0.6,0.6
				v27.4c0,0.3-0.3,0.6-0.6,0.6h-1.5C210.4,746.2,210.2,746,210.2,745.6z"/>
			<path marker-start="none" marker-end="none" class="st0" d="M20.4,744.8v-26.2c0-0.3,0.3-0.6,0.6-0.6h1.5c0.3,0,0.6,0.3,0.6,0.6
				v26.2c0,0.3-0.3,0.6-0.6,0.6H21C20.7,745.4,20.4,745.1,20.4,744.8z"/>
			<path marker-start="none" marker-end="none" class="st0" d="M20.4,709.6v-26.2c0-0.3,0.3-0.6,0.6-0.6h1.5c0.3,0,0.6,0.3,0.6,0.6
				v26.2c0,0.3-0.3,0.6-0.6,0.6H21C20.7,710.2,20.4,709.9,20.4,709.6z"/>
			<path marker-start="none" marker-end="none" class="st0" d="M20.4,778.9v-14.1c0-0.5,0.4-0.9,0.9-0.9h2.9c0.5,0,0.9,0.4,0.9,0.9
				v14.1c0,0.5-0.4,0.9-0.9,0.9h-2.9C20.8,779.8,20.4,779.3,20.4,778.9z"/>
			<path marker-start="none" marker-end="none" class="st1" d="M22.6,802.7v-335c0-15,12.2-27.2,27.2-27.2h133.5
				c15,0,27.2,12.2,27.2,27.2v335c0,15-12.2,27.2-27.2,27.2H49.8C34.8,829.9,22.6,817.7,22.6,802.7z"/>
			<path marker-start="none" marker-end="none" class="st2" d="M32.9,781.9V486.5c0-0.5,0.4-0.9,0.9-0.9h166.1
				c0.5,0,0.9,0.4,0.9,0.9v295.4c0,0.5-0.4,0.9-0.9,0.9H33.9C33.4,782.8,32.9,782.4,32.9,781.9z"/>
			<path marker-start="none" marker-end="none" class="st3" d="M104.6,472.4c4.5,6.8,13.6,8.7,20.4,4.2c6.8-4.5,8.7-13.6,4.2-20.4
				c-4.5-6.8-13.6-8.7-20.4-4.2C102,456.5,100.1,465.6,104.6,472.4z"/>
			<path marker-start="none" marker-end="none" class="st4" d="M115.6,819.3c1,0.9,2.6,0.8,3.5-0.2c0.9-1,0.8-2.6-0.2-3.5
				c-1-0.9-2.6-0.8-3.5,0.2C114.5,816.8,114.6,818.4,115.6,819.3z"/>
			<path marker-start="none" marker-end="none" class="st4" d="M102,804.8L102,804.8c0-0.8,0.8-1.4,1.7-1.4h26.8
				c1,0,1.7,0.6,1.7,1.4v0c0,0.8-0.8,1.4-1.7,1.4h-26.8C102.8,806.2,102,805.6,102,804.8z"/>
			<path marker-start="none" marker-end="none" class="st4" d="M84.7,807.2c1.3,1.2,3.3,1,4.5-0.3c1.2-1.3,1-3.3-0.3-4.5
				c-1.3-1.2-3.3-1-4.5,0.3C83.3,804,83.4,806,84.7,807.2z"/>
		</g>
	</g>
</g>
<image style="overflow:visible;" width="800" height="1065" xlink:href="rhada.jpg"  transform="matrix(0.2094 0 0 0.2094 32.929 101.046)">
</image>
</svg>
